<svg xmlns="http://www.w3.org/2000/svg" viewBox="0 0 640 260" width="1280" height="520">
  <defs>
    <mask id="iCut">
      <rect x="0" y="0" width="640" height="260" fill="white" />
      <circle cx="218" cy="208" r="22" fill="black" />
    </mask>
  </defs>

  <rect width="640" height="260" rx="18" fill="#0455b0" />

  <g id="letterM">
    <rect x="35" y="70" width="42" height="150" fill="#ffffff" />
    <path d="M 77,70 L 112,220 L 152,70" stroke="#ffffff" stroke-width="42" stroke-linecap="round" stroke-linejoin="round" fill="none" />
    <polygon points="148,70 196,70 196,195 180,220 148,220" fill="#ffffff" />
  </g>

  <g id="letterU">
    <path d="M 204,80 L 204,200 C 204,232 248,232 248,200 L 248,80" stroke="#509CE2" stroke-width="34" stroke-linecap="square" fill="none" />
  </g>

  <g id="letterI">
    <rect x="202" y="70" width="22" height="150" fill="#ffffff" mask="url(#iCut)" />
    <polygon points="213,42 226,56 213,70 200,56" fill="#509CE2" />
  </g>

  <g id="letterO">
    <circle cx="296" cy="155" r="40" fill="none" stroke="#509CE2" stroke-width="34" />
  </g>

  <path d="M 355,218 Q 357,225 364,227 Q 357,229 355,236 Q 353,229 346,227 Q 353,225 355,218 Z" fill="#509CE2" />
</svg>
